
<svg version="1.2" xmlns="http://www.w3.org/2000/svg" viewBox="0 0 2208 1942" width="2208" height="1942"><style>.a{fill:#0f110e}.b{fill:none;stroke:#000;stroke-linecap:round;stroke-linejoin:round;stroke-width:.5}.c{fill:#ff4850}.d{fill:#ff4850;stroke:#000;stroke-miterlimit:10;stroke-width:.6}.e{fill:#fff;stroke:#000;stroke-miterlimit:10;stroke-width:.6}.f{fill:none;stroke:#000;stroke-linecap:round;stroke-linejoin:round;stroke-width:.4}.g{fill:none;stroke:#000;stroke-linecap:round;stroke-linejoin:round;stroke-width:.6}.h{fill:none;stroke:#ff4850;stroke-miterlimit:10;stroke-width:.4}.i{fill:#fe8d9f}.j{fill:#fff}.k{fill:#fbd6e7}.l{fill:#0c001c}.m{fill:#161616}</style><path class="a" d="m375.6 2227.1c2.6 44.9 5.3 96.4 23.6 138.1 8.2 18.8 25.9 27 34.5 3.4 10.2-28.4 5-64.8 2.3-94.1-1.9-22.3-4.6-44.6-8.2-66.7q-4 1.1-8 2.2c4.6 17.3 9.9 34.6 16.2 51.5 4.1 11.1 10 35.5 24.1 37.9 25 4.2 15.1-50.2 13.7-61.2-7.6-59.3-28.4-117.4-26.8-177.5 4.5-168.5 22.6-337.1 36.5-504.9 4.8-58.2 13-117.3 14-175.8 0-5.4-8.3-5.4-8.4 0-0.7 44.3-6.8 89.1-10.4 133.3-7.1 85.5-14.2 170.9-20.9 256.4-6.3 80.7-12.6 161.4-17 242.3-1.2 22.7-2.8 45.5-2.4 68.3 0.4 20.3 5.1 40.3 9.1 60.1 8.9 43.4 23.2 90.9 20.5 135.5-0.3 3.7-0.3 14.9-5.6 15.4-7.6 0.8-15.3-23.7-17-28.3-6.9-18-12.6-36.6-17.6-55.2-1.4-5.3-8.8-3-8 2.2 6.8 42.2 12.4 86.3 10.1 129.1-0.5 9.6-0.5 22.7-5.9 31.1-9.9 15.6-18.6-11.2-21.2-19-12.8-39.6-16.4-82.8-18.9-124.1-0.3-5.3-8.7-5.3-8.3 0z"/><path class="a" d="m337.4 2234.8c2.3 33 5.5 66.1 10.2 98.8 2.4 16.5 4.1 35.7 11.8 50.8 5.4 10.5 17.4 17.1 26.8 7.1 6.4-6.9 8.6-17.4 9.7-26.4 2.3-17.3 0.5-34.9-2.2-52-0.8-5.2-8.8-3-8 2.2 2.3 14.7 3.8 29.8 2.5 44.6-0.7 8-2 17.4-6.7 24.1-7.2 10.2-14.4-1.3-16.9-8.8-5.3-15.5-7.4-32.3-9.6-48.5-2.8-19.7-4.8-39.6-6.6-59.4-1-10.9-1.9-21.7-2.7-32.5-0.3-5.3-8.7-5.4-8.3 0z"/><path class="a" d="m297.6 2254.2c0.3 13.5 2.1 27.1 3.6 40.5 2.3 19.7 4.8 39.6 9 59 2.5 11.6 5.8 25.4 14.8 34 7.9 7.6 17.2 3.7 21.6-5.4 4.1-8.1 5.4-17.6 6.3-26.6 1.5-15.7 0.9-31.6-0.3-47.4-0.3-5.3-8.7-5.3-8.3 0 1.6 21.1 3.4 44.7-3.1 65.2-1.1 3.5-2.7 8.3-6.1 10-0.3 0.2-0.9 0.4-2.1-0.1-1-0.4-2.5-1.9-3.4-3-7.6-8.7-9.9-21.5-12.1-32.5-3.5-17.3-5.9-34.9-7.9-52.5-1.5-13.7-3.4-27.5-3.6-41.2-0.1-5.4-8.5-5.4-8.4 0z"/><path class="a" d="m304.4 2320.6c1.8 16.6 3.3 33.6 2.3 50.3-0.5 8.1 0.6 17.6-8.3 14.3-11.2-4.1-18.3-28.3-21.9-37.8-22-58.5-32.8-121.9-43.1-183.2-29-172.9-45.1-350.9-39.8-526.2 2.1-69.4 3.5-149.8 34.6-213.6 2.3-4.8-4.8-9-7.2-4.2-28.3 58.2-31.8 129.5-34.8 192.9-4.4 93.4-0.5 187.3 6.6 280.5 7.1 93.6 17.9 187.1 33.8 279.7 10.6 62.2 21.2 128 45.9 186.5 4.8 11.2 12.8 32.5 27.1 34.7 26.3 4.1 14.6-60.6 13.1-73.9-0.6-5.2-8.9-5.3-8.3 0z"/><path class="b" d="m1745.1 229.7c0.9-27.3-19.7-41.8-19.7-41.8 0 0-5.6-71.6-19.7-74.2-14.2-2.6-19.4 34.5-22.9 66.5-3.5 31.9-8.6 85.9-15.7 107.9-15.3 47-392.9 608.2-392.9 608.2l278.5 208.3c0 0 296.2-687.2 318-746.3 17.6-47.7 45.2-152.2 47.5-194.9 1.1-21.4 0.6-37.3-11.3-39.3-21.6-3.8-51.9 102.4-51.9 102.4"/><path class="b" d="m1873.9 171.2c0 0 15.5-60.8-0.6-68.3-16.2-7.6-31.3 30.9-59.9 110.2"/><path class="b" d="m1829.4 169.7c0 0 16.4-74.4-1.8-82.5-18.1-8.2-41.9 66.3-54.4 115.1"/><path class="b" d="m1789 148.3c0 0 16.6-65.2 0-70-18.2-5.3-48.4 62.8-62 105.3"/><path class="c" d="m1280.3 800.1c0 0-153.7 170.9-352.9 192.6l-112.8-5c-198.5-26.8-356.8 73.7-450.2 158.7-112.3 102.4-209.1 442-209.1 442 185.7 17.3 315.9 26.7 315.9 26.7l787.1-138.1c0 0 174.5-71.8 366.2-420.4z"/><path class="b" d="m1556.2 1091.3l-278.4-208.8"/><path class="b" d="m471.2 1463.3l787.1 13.7c0 0 86.8-35.7 205.2-179"/><path class="c" d="m1264.3 2187.3l-822.1-10.7 9.3-712.3c2.9-227.1 189.3-408.7 416.4-405.7 227 2.9 408.6 189.3 405.7 416.4z"/><path class="b" d="m471.3 2091.4l759.4 9.9"/><path class="b" d="m1268.9 1400.5q1.9 21.4 1.7 43.5l-9.3 712.3-822.1-10.7 9.3-712.3c0.2-16 1.3-91.3 3.3-106.8"/><path  d="m862.7 906.2c0 0-75.3-3.7-113.3-34.4-38-30.7-85.6-142.7-60-231.8 25.5-89.2 164.9-96 227.3-90.8 62.5 5.2 160.7 59.3 160.7 59.3 0 0 5.8 259.7-107.6 289-113.4 29.4-107.1 8.7-107.1 8.7z"/><path fill-rule="evenodd" class="d" d="m875.8 1055.6c-56.5 0-102.2-25.9-102.2-58 0-32.1 45.7-58.1 102.2-58.1 56.5 0 102.2 26 102.2 58.1 0 32.1-45.7 58-102.2 58z"/><path class="e" d="m889.8 1027.1l-26.6-0.6c-34.3-0.8-61.6-29.3-60.8-63.6l1.1-49.9c0.8-34.3 29.2-61.6 63.6-60.8l26.5 0.6c34.4 0.7 61.6 29.2 60.9 63.6l-1.1 49.8c-0.8 34.4-29.3 61.6-63.6 60.9z"/><path fill-rule="evenodd" class="e" d="m699.3 821.5c-25.6 0-46.2-20.5-46.2-45.9 0-25.4 20.6-45.9 46.2-45.9 25.6 0 46.3 20.5 46.3 45.9 0 25.4-20.7 45.9-46.3 45.9z"/><path class="f" d="m724.9 777c0.7-14-10.1-26-24.3-26.7"/><path fill-rule="evenodd" class="e" d="m1061.4 829.5c-25.6 0-46.3-20.5-46.3-45.9 0-25.3 20.7-45.8 46.3-45.8 25.6 0 46.2 20.5 46.2 45.8 0 25.4-20.6 45.9-46.2 45.9z"/><path class="f" d="m1035.8 783.9c-0.1-14.1 11.2-25.5 25.4-25.6"/><path class="e" d="m1025.7 798.5c-2.2 69.1-60.6 123.8-129.7 121.6l-40.8-1.3c-69.1-2.3-123.9-60.7-121.6-129.8l4.3-135.6c2.3-69.1 60.6-123.8 129.8-121.6l40.8 1.3c69.1 2.3 123.8 60.6 121.6 129.8z"/><path class="f" d="m921.8 810.5c-3 18.5-19.1 32.4-38.3 31.7-19.2-0.6-34.4-15.5-36.1-34.1z"/><path fill-rule="evenodd" d="m787.3 736.3c-9.4 0-17-7.6-17-16.9 0-9.4 7.6-17 17-17 9.3 0 16.9 7.6 16.9 17 0 9.3-7.6 16.9-16.9 16.9z"/><path fill-rule="evenodd" d="m966.4 740.3c-9.3 0-16.9-7.6-16.9-16.9 0-9.4 7.6-17 16.9-17 9.4 0 17 7.6 17 17 0 9.3-7.6 16.9-17 16.9z"/><path class="g" d="m950.3 686.1c0 0 24.1-4.8 41.9 8.8"/><path class="g" d="m804.8 682.9c0 0-23.9-5.9-42.3 6.9"/><path class="g" d="m895.9 763.2l-30.7-0.7 16.2-66.5"/><path  d="m959.7 458.7c-23.1-8.4-43.8-12.7-56.7-13.7-43.4-3.3-188.1-1.8-225.9 94.4-37.8 96.2 3.4 181.6 3.4 181.6l1.4-24.3c12.3 15.5 55.1 45.6 55.1 45.6l8.1-47.2c0 0 177.5 8.8 191.2-85.1 0.5-3.2-11.1 74.3 50.1 97.7 0 0-13.3-37.4-4.2-65.6 0 0-2 56.8 37.6 73.2l3.8 45c0 0 20.2-18.4 29.8-58.7 0.8 39.1 0.8 39.1 0.8 39.1 0 0 49.5-45.3 37.8-145.5-8.6-74.2-77.2-116.7-132.3-136.5z"/><path fill-rule="evenodd" class="h" d="m784.5 778.6c-38.4 0-69.5-32.6-69.5-72.9 0-40.3 31.1-72.8 69.5-72.8 38.5 0 69.6 32.5 69.6 72.8 0 40.3-31.1 72.9-69.6 72.9z"/><path fill-rule="evenodd" class="h" d="m985.4 779.3c-38.5 0-69.6-32.5-69.6-72.8 0-40.3 31.1-72.9 69.6-72.9 38.5 0 69.5 32.6 69.5 72.9 0 40.3-31 72.8-69.5 72.8z"/><path class="h" d="m850.1 727.5c7.6-3.6 19-7.6 32.3-7.6 15.5 0.1 28.6 4.8 36.7 8.7"/><path class="i" d="m1136.8 1196.5c-53.3-32.4-77.8 24.5-77.8 24.5 0 0-21.4-53.8-77.1-25.3-49.7 25.3-30.7 126.6 76.4 177.2 101.8-50.6 139.8-139.2 78.5-176.4z"/><path class="j" d="m1067.9 1306.9h-13.7v-54.3h13.7z"/><path class="j" d="m1033.9 1286.6v-13.7h54.3v13.7z"/><path class="k" d="m1634.8 705.9l-103.9-42.6c-15-6.1-22.1-23.2-16-38.2 6.1-15 23.3-22.2 38.2-16l103.9 42.5c15 6.2 22.2 23.3 16 38.3-6.1 15-23.2 22.1-38.2 16z"/><path class="l" d="m1618.5 686.6l-62.4-25.6c-9-3.7-13.3-14-9.7-23 3.7-9 14-13.3 23-9.6l62.5 25.6c9 3.7 13.3 14 9.6 23-3.7 9-14 13.3-23 9.6z"/><path class="m" d="m1942.7 1136q-0.5-0.2-1-0.4c-7.7-3.4-11.5-11-14-17.3-5.4-13.7-7.9-27-7.3-39.7 0.9-19.6 7.3-30.9 19.2-33.7 6.7-1.7 14.1 0.3 19.2 5 2.8 2.6 5 6 6.6 10.4q0 0 0 0c1.1 3.2 1.7 6.4 2.2 9.4q1-1.3 2-2.6c1.8-2.2 3.6-4.6 6-6.7 6.5-5.6 16-7.4 24.1-4.7 8.2 2.7 14.6 9.9 16.4 18.3 1.3 5.7 0.5 11.9-2.1 18.1-2.5 6-6.4 11-9.2 14.2-12.3 14.4-27.5 24.5-43.9 29.3-4.8 1.4-11.7 2.9-18.2 0.4zm5.7-81c-2.1-0.8-4.4-1-6.5-0.5-7.2 1.7-10.9 9.7-11.6 24.5-0.5 11.3 1.7 23.3 6.6 35.6 1.8 4.5 4.4 10 8.8 11.9 2.9 1.3 6.9 1.2 12.4-0.4 14.4-4.2 28.3-13.5 39.2-26.2 3.7-4.4 6.1-8.1 7.6-11.7 1.3-2.9 2.6-7.4 1.5-12.1-1-5-4.9-9.4-9.8-11-4.9-1.6-10.7-0.5-14.6 2.9-1.6 1.4-3.1 3.2-4.6 5.2-1.8 2.3-3.6 4.7-6 6.7-0.6 0.6-2.1 1.8-4.3 2.1-2.9 0.5-6-1.1-7.6-3.9-1-1.8-1.3-3.6-1.4-4.9-0.4-3-1-6.5-2.1-9.5-1-2.9-2.3-5-4-6.5-1-1-2.2-1.7-3.6-2.2zm19.7 18.2h0.1z"/><path class="m" d="m1255.4 262.1q-0.5 0.2-1 0.5c-7.5 3.6-15.9 1.4-22.3-0.8-13.8-4.8-25.5-11.7-34.7-20.5-14.2-13.5-18.5-25.8-12.9-36.6 3.2-6.2 9.5-10.4 16.3-11.2 3.9-0.4 7.9 0.2 12.3 1.9q0 0 0 0c3.1 1.2 5.9 2.8 8.5 4.4q-0.3-1.6-0.6-3.2c-0.6-2.8-1.2-5.7-1.2-8.9 0.1-8.6 4.9-16.9 12.2-21.3 7.5-4.4 17.1-4.5 24.6-0.4 5.1 2.8 9.4 7.4 12.4 13.4 2.8 5.8 4 12.1 4.6 16.3 2.9 18.7 0.6 36.8-6.6 52.4-2.1 4.5-5.5 10.7-11.6 14zm-57.5-57.5c-1.9 1.1-3.6 2.7-4.6 4.7-3.4 6.5 0.2 14.6 10.9 24.8 8.2 7.8 18.7 14 31.1 18.3 4.7 1.6 10.6 3.2 14.9 1.2 2.9-1.4 5.3-4.4 7.8-9.7 6.2-13.6 8.3-30.2 5.8-46.7-0.8-5.7-2-9.9-3.7-13.4-1.5-2.9-4-6.8-8.2-9.1-4.5-2.5-10.3-2.4-14.8 0.2-4.4 2.6-7.3 7.8-7.3 12.9 0 2.2 0.4 4.5 0.9 6.9 0.6 2.8 1.1 5.8 1.1 8.9 0 0.9 0 2.8-1.2 4.6-1.5 2.6-4.8 3.9-7.9 3.3-2.1-0.4-3.6-1.5-4.7-2.2-2.5-1.6-5.5-3.5-8.6-4.7-2.7-1.1-5.2-1.5-7.5-1.2-1.4 0.1-2.7 0.6-4 1.2zm26.7-2.9z"/></svg>